<?xml version="1.0" encoding="utf-8"?>
<!-- Generator: Adobe Illustrator 18.1.0, SVG Export Plug-In . SVG Version: 6.00 Build 0)  -->
<!DOCTYPE svg PUBLIC "-//W3C//DTD SVG 1.1//EN" "http://www.w3.org/Graphics/SVG/1.1/DTD/svg11.dtd">
<svg version="1.1" xmlns="http://www.w3.org/2000/svg" xmlns:xlink="http://www.w3.org/1999/xlink" x="0px" y="0px"
	 viewBox="0 0 283.5 45.7" enable-background="new 0 0 283.5 45.7" xml:space="preserve">
<g id="Calque_1">
	<g>
		<path fill="#FFFFFF" d="M62.9,4.3l-7,12.1h-7.3l-8.6,15h7.3L41.8,41h18c4.6-5.6,7.4-12.8,7.4-20.6C67.1,14.5,65.6,9.1,62.9,4.3z"
			/>
		<path fill="#FFFFFF" d="M27.3,41L27.3,41L27.3,41L27.3,41L49.6,2.2H30.7L17.8,24.6L6.2,4.3C3.5,9,1.9,14.5,1.9,20.4
			c0,7.8,2.8,15,7.4,20.6L27.3,41L27.3,41z"/>
	</g>
	<g>
		<g>
			<path fill="#FFFFFF" d="M75.7,22.3c0-9,4.5-13.3,11.8-13.3c7.3,0,11.8,4.3,11.8,13.3c0,8.9-4.5,13.2-11.8,13.2
				C80.1,35.5,75.7,31.2,75.7,22.3z M78.3,22.3c0,7.4,3.4,10.9,9.1,10.9c5.8,0,9.1-3.5,9.1-10.9c0-7.4-3.4-10.9-9.1-10.9
				C81.7,11.4,78.3,14.9,78.3,22.3z"/>
			<path fill="#FFFFFF" d="M119.4,10.1c0.1-0.3,0.5-0.8,1.2-0.8c0.7,0,1.3,0.6,1.3,1.3c0,0.2-0.1,0.5-0.1,0.6L113,34.5
				c-0.2,0.5-0.7,0.9-1.2,0.9s-1-0.3-1.2-0.9l-8.8-23.3c0-0.1-0.1-0.3-0.1-0.6c0-0.7,0.6-1.3,1.3-1.3c0.7,0,1.1,0.5,1.2,0.8
				l7.7,20.3L119.4,10.1z"/>
			<path fill="#FFFFFF" d="M128.2,23.2V34c0,0.7-0.6,1.3-1.3,1.3c-0.7,0-1.3-0.6-1.3-1.3V10.6c0-0.7,0.6-1.3,1.3-1.3
				c0.7,0,1.3,0.6,1.3,1.3v10.2h13.1V10.6c0-0.7,0.6-1.3,1.3-1.3c0.7,0,1.3,0.6,1.3,1.3V34c0,0.7-0.6,1.3-1.3,1.3
				c-0.7,0-1.3-0.6-1.3-1.3V23.2H128.2z"/>
			<path fill="#FFFFFF" d="M148.2,33.5c0-1.2,0.7-1.8,1.8-1.8c1.1,0,1.8,0.6,1.8,1.8s-0.7,1.8-1.8,1.8
				C148.9,35.3,148.2,34.8,148.2,33.5z"/>
			<path fill="#FFFFFF" d="M162.1,17.3c3.4,0,5.2,1.8,5.8,2.6c0.2,0.3,0.3,0.5,0.3,0.7c0,0.6-0.5,1.1-1.1,1.1
				c-0.4,0-0.6-0.2-0.9-0.5c-0.6-0.6-1.6-1.8-4.1-1.8c-3.5,0-5.3,2.2-5.3,6.9c0,4.7,1.9,6.9,5.3,6.9c2.2,0,3.5-1,4.4-1.6
				c0.3-0.2,0.5-0.3,0.7-0.3c0.6,0,1.1,0.5,1.1,1.1c0,0.3-0.1,0.6-0.5,0.9c-0.8,0.7-2.6,2-5.7,2c-4.9,0-7.8-2.9-7.8-9.1
				C154.3,20.2,157.2,17.3,162.1,17.3z"/>
			<path fill="#FFFFFF" d="M186.8,26.4c0,6.2-3,9.1-7.9,9.1c-4.9,0-7.9-2.9-7.9-9.1c0-6.2,3.1-9.1,7.9-9.1
				C183.8,17.3,186.8,20.2,186.8,26.4z M184.4,26.4c0-4.8-2-6.9-5.5-6.9c-3.5,0-5.5,2.1-5.5,6.9c0,4.8,2,6.9,5.5,6.9
				C182.4,33.3,184.4,31.2,184.4,26.4z"/>
			<path fill="#FFFFFF" d="M216.6,24v10.1c0,0.7-0.5,1.2-1.2,1.2c-0.7,0-1.2-0.5-1.2-1.2v-9.6c0-3-1.1-5-4.7-5
				c-3.2,0-4.7,1.7-4.7,4.5v10.1c0,0.7-0.5,1.2-1.2,1.2c-0.7,0-1.2-0.5-1.2-1.2v-9.6c0-3-0.9-5-4.6-5c-3.5,0-4.6,2.1-4.6,5.3v9.3
				c0,0.7-0.5,1.2-1.2,1.2s-1.2-0.5-1.2-1.2V18.8c0-0.7,0.5-1.2,1.2-1.2s1.2,0.5,1.2,1.2V20c0.6-1.4,2.5-2.6,4.9-2.6
				c3.1,0,5.1,1.1,6,2.6c0.9-1.5,2.6-2.6,5.5-2.6C215.3,17.3,216.6,20.8,216.6,24z"/>
		</g>
	</g>
</g>
<g id="Calque_2">
</g>
</svg>
