<?xml version="1.0" encoding="utf-8"?>
<!-- Generator: Adobe Illustrator 22.0.1, SVG Export Plug-In . SVG Version: 6.00 Build 0)  -->
<svg version="1.1" id="Calque_1" xmlns="http://www.w3.org/2000/svg" xmlns:xlink="http://www.w3.org/1999/xlink" x="0px" y="0px"
	 viewBox="0 0 16 16" style="enable-background:new 0 0 16 16;" xml:space="preserve">
<style type="text/css">
	.st0{fill:none;stroke:#122844;stroke-linecap:round;stroke-linejoin:round;stroke-miterlimit:10;}
	.st1{fill:#122844;}
</style>
<circle class="st0" cx="8" cy="8" r="7.5"/>
<g>
	<path class="st1" d="M9.1,5.8c0-0.6-0.4-1.2-1.2-1.2c-0.5,0-1,0.3-1.4,0.7L6,4.8c0.5-0.6,1.2-1,2.1-1c1.2,0,2,0.7,2,1.9
		C10,7.3,8.1,8,8.3,9.6H7.4C7.2,7.8,9.1,7.1,9.1,5.8z M7.2,11.4c0-0.5,0.3-0.8,0.7-0.8c0.4,0,0.7,0.3,0.7,0.8c0,0.4-0.3,0.7-0.7,0.7
		C7.5,12.2,7.2,11.8,7.2,11.4z"/>
</g>
</svg>
